<?xml version="1.0" encoding="UTF-8" standalone="no"?>
<!-- Created with Inkscape (http://www.inkscape.org/) -->

<svg
   xmlns:dc="http://purl.org/dc/elements/1.1/"
   xmlns:cc="http://creativecommons.org/ns#"
   xmlns:rdf="http://www.w3.org/1999/02/22-rdf-syntax-ns#"
   xmlns:svg="http://www.w3.org/2000/svg"
   xmlns="http://www.w3.org/2000/svg"
   xmlns:sodipodi="http://sodipodi.sourceforge.net/DTD/sodipodi-0.dtd"
   xmlns:inkscape="http://www.inkscape.org/namespaces/inkscape"
   width="744.09448"
   height="1052.3622"
   id="svg3392"
   version="1.1"
   inkscape:version="0.91 r13725"
   viewBox="0 0 744.09448 1052.3622"
   sodipodi:docname="chamber.svg">
  <defs
     id="defs3394" />
  <sodipodi:namedview
     id="base"
     pagecolor="#ffffff"
     bordercolor="#ffffff"
     borderopacity="0.0"
     inkscape:pageopacity="0.0"
     inkscape:pageshadow="0"
     inkscape:zoom="0.87"
     inkscape:cx="298.91111"
     inkscape:cy="723.35446"
     inkscape:document-units="px"
     inkscape:current-layer="layer1"
     showgrid="false"
     inkscape:snap-bbox="false"
     inkscape:snap-midpoints="true"
     inkscape:snap-intersection-paths="true"
     inkscape:window-width="1276"
     inkscape:window-height="755"
     inkscape:window-x="0"
     inkscape:window-y="0"
     inkscape:window-maximized="1" />
  <metadata
     id="metadata3397">
    <rdf:RDF>
      <cc:Work
         rdf:about="">
        <dc:format>image/svg+xml</dc:format>
        <dc:type
           rdf:resource="http://purl.org/dc/dcmitype/StillImage" />
        <dc:title></dc:title>
      </cc:Work>
    </rdf:RDF>
  </metadata>
  <g
     inkscape:label="Layer 1"
     inkscape:groupmode="layer"
     id="layer1">
    <g
       transform="translate(-61.862059,-213.73062)"
       id="layer1-3"
       inkscape:label="Layer 1">
      <path
         inkscape:connector-curvature="0"
         id="path4147"
         d="m 391.89732,357.89792 27.34375,0 27.34375,0 27.34375,0 29.91072,29.91071 66.875,0 91.91964,91.91964 93.61607,0 0,-135.58035 -364.24801,0 m -54.89774,0 -0.76667,0 -362.230437,0 -1.428572,135.71428 95.357143,0 91.964286,-92.5 65.71429,0 29.46428,-29.46428 27.34375,0 27.34375,0 27.34375,0"
         style="fill:none;fill-rule:evenodd;stroke:#000000;stroke-width:1px;stroke-linecap:butt;stroke-linejoin:miter;stroke-opacity:1"
         sodipodi:nodetypes="ccccccccccccccccccccc" />
      <path
         inkscape:connector-curvature="0"
         id="path4147-2"
         d="m 391.89732,357.89792 27.34375,0 27.34375,0 27.34375,0 29.91072,29.91071 66.875,0 91.91964,91.91964 93.61607,0 0,-135.58035 -364.55877,0 m -54.57482,0 -363.009267,0 -1.428572,135.71428 95.357143,0 91.964286,-92.5 65.71429,0 29.46428,-29.46428 27.34375,0 27.34375,0 27.34375,0"
         style="fill:none;fill-rule:evenodd;stroke:#000000;stroke-width:1px;stroke-linecap:butt;stroke-linejoin:miter;stroke-opacity:1"
         transform="matrix(1,0,0,-1,-0.1198023,1007.5295)"
         sodipodi:nodetypes="cccccccccccccccccccc" />
      <path
         inkscape:connector-curvature="0"
         id="path4164"
         d="m 109.22274,503.09176 69.32172,-69.32172 46.71956,0 30.30457,30.30458 0,77.90801 -30.30457,30.30458 -47.22463,0 z"
         style="fill:none;fill-rule:evenodd;stroke:#000000;stroke-width:1px;stroke-linecap:butt;stroke-linejoin:miter;stroke-opacity:1" />
      <path
         inkscape:connector-curvature="0"
         id="path4164-0"
         d="m 109.22274,503.09176 69.32172,-69.32172 46.71956,0 30.30457,30.30458 0,77.90801 -30.30457,30.30458 -47.22463,0 z"
         style="fill:none;fill-rule:evenodd;stroke:#000000;stroke-width:1px;stroke-linecap:butt;stroke-linejoin:miter;stroke-opacity:1"
         transform="matrix(-1,0,0,1,729.43545,0.6192936)" />
    </g>
    <path
       style="fill:none;fill-rule:evenodd;stroke:#000000;stroke-width:1px;stroke-linecap:butt;stroke-linejoin:miter;stroke-opacity:1"
       d="m 275.02691,144.18134 0,-13.76404"
       id="path3521"
       inkscape:connector-curvature="0" />
    <path
       style="fill:none;fill-rule:evenodd;stroke:#000000;stroke-width:1px;stroke-linecap:butt;stroke-linejoin:miter;stroke-opacity:1"
       d="m 330.24758,144.18134 0,-13.76404"
       id="path3523"
       inkscape:connector-curvature="0" />
    <path
       style="fill:none;fill-rule:evenodd;stroke:#000000;stroke-width:1px;stroke-linecap:butt;stroke-linejoin:miter;stroke-opacity:1"
       d="m 274.91927,435.89286 0,13.7581"
       id="path3525"
       inkscape:connector-curvature="0" />
    <path
       style="fill:none;fill-rule:evenodd;stroke:#000000;stroke-width:1px;stroke-linecap:butt;stroke-linejoin:miter;stroke-opacity:1"
       d="m 330.03229,435.89286 0,13.7581"
       id="path3527"
       inkscape:connector-curvature="0" />
  </g>
</svg>
