<?xml version="1.0" encoding="UTF-8" standalone="no"?>
<!-- Created with Inkscape (http://www.inkscape.org/) -->

<svg
   xmlns:dc="http://purl.org/dc/elements/1.1/"
   xmlns:cc="http://creativecommons.org/ns#"
   xmlns:rdf="http://www.w3.org/1999/02/22-rdf-syntax-ns#"
   xmlns:svg="http://www.w3.org/2000/svg"
   xmlns="http://www.w3.org/2000/svg"
   xmlns:sodipodi="http://sodipodi.sourceforge.net/DTD/sodipodi-0.dtd"
   xmlns:inkscape="http://www.inkscape.org/namespaces/inkscape"
   width="200mm"
   height="100mm"
   viewBox="0 0 708.66142 354.33071"
   id="svg2"
   version="1.1"
   inkscape:version="0.91 r"
   sodipodi:docname="join.svg">
  <defs
     id="defs4" />
  <sodipodi:namedview
     id="base"
     pagecolor="#ffffff"
     bordercolor="#666666"
     borderopacity="1.0"
     inkscape:pageopacity="0.0"
     inkscape:pageshadow="2"
     inkscape:zoom="0.7"
     inkscape:cx="108.04886"
     inkscape:cy="266.14987"
     inkscape:document-units="px"
     inkscape:current-layer="layer1"
     showgrid="false"
     inkscape:window-width="1920"
     inkscape:window-height="1028"
     inkscape:window-x="1366"
     inkscape:window-y="0"
     inkscape:window-maximized="1">
    <inkscape:grid
       type="xygrid"
       id="grid4154" />
  </sodipodi:namedview>
  <metadata
     id="metadata7">
    <rdf:RDF>
      <cc:Work
         rdf:about="">
        <dc:format>image/svg+xml</dc:format>
        <dc:type
           rdf:resource="http://purl.org/dc/dcmitype/StillImage" />
        <dc:title />
      </cc:Work>
    </rdf:RDF>
  </metadata>
  <g
     inkscape:label="Layer 1"
     inkscape:groupmode="layer"
     id="layer1"
     transform="translate(0,-698.0315)">
    <path
       style="fill:none;fill-rule:evenodd;stroke:#000000;stroke-width:1px;stroke-linecap:butt;stroke-linejoin:miter;stroke-opacity:1"
       d="m 84.145106,-17.716535 c 0,0 0.382457,116.922974 0.357143,125.444325 -0.02531,8.52135 1.257874,24.46087 18.959511,44.813 17.70163,20.35214 58.20584,23.55314 58.20584,23.55314 0,0 -38.84965,1.71822 -57.15923,21.73737 -18.309582,20.01915 -20.774012,38.95391 -20.849763,46.27164 -0.07575,7.31773 -0.601572,127.9443 -0.601572,127.9443 l -100.77357,0 0,-389.763775 z"
       id="path4136"
       inkscape:connector-curvature="0"
       transform="translate(0,698.0315)"
       sodipodi:nodetypes="czzczzcccc" />
    <path
       style="fill:none;fill-rule:evenodd;stroke:#000000;stroke-width:1px;stroke-linecap:butt;stroke-linejoin:miter;stroke-opacity:1"
       d="m 121.83998,-17.716535 c 0,0 1.00612,118.160965 1.13105,125.368405 0.12494,7.20743 2.26934,16.92973 11.97554,25.17857 9.70619,8.24884 18.6775,9.13272 26.04472,9.25899 7.36721,0.12627 380.27889,-0.33299 382.5717,-0.35714 3.92469,-0.0413 17.40105,0.54091 28.009,-11.93757 10.60795,-12.47848 9.5199,-17.44815 9.53318,-22.14285 0.0133,-4.6947 0.35715,-125.368405 0.35715,-125.368405 z"
       id="path4138"
       inkscape:connector-curvature="0"
       transform="translate(0,698.0315)"
       sodipodi:nodetypes="czzzszzcc" />
    <path
       style="fill:none;fill-rule:evenodd;stroke:#000000;stroke-width:1px;stroke-linecap:butt;stroke-linejoin:miter;stroke-opacity:1"
       d="m 122.21291,245.07878 c -0.16996,-7.02611 1.25957,-14.40753 10.55426,-24.4962 9.29469,-10.08866 23.0863,-11.1491 29.19736,-11.14087 6.11106,0.008 374.74281,0.74933 380.84085,0.77928 6.09804,0.03 15.0652,-0.41157 26.37514,8.82376 11.30994,9.23533 12.17585,20.12185 12.23302,25.61753 0.0572,5.49568 0.0383,127.38496 0.0383,127.38496 l -459.2389,0 c 0,0 0.16993,-119.94235 -3e-5,-126.96846 z"
       id="path4140"
       inkscape:connector-curvature="0"
       transform="translate(0,698.0315)"
       sodipodi:nodetypes="zzzzzzccz" />
    <path
       style="fill:none;fill-rule:evenodd;stroke:#000000;stroke-width:1px;stroke-linecap:butt;stroke-linejoin:miter;stroke-opacity:1"
       d="m 542.98655,176.15521 c 0,0 40.85175,-3.45758 56.4326,-22.64104 C 615,134.33071 619.90494,124.32863 619.95247,109.32967 620,94.330709 618.77339,-17.716535 618.77339,-17.716535 l 107.60456,0 0,389.763775 -106.85979,0 c 0,0 0.48184,-112.71653 0.82508,-127.63728 C 620.68648,229.48921 610,209.33071 593.98958,193.11412 577.97916,176.89753 542.98655,176.15521 542.98655,176.15521 Z"
       id="path4142"
       inkscape:connector-curvature="0"
       transform="translate(0,698.0315)"
       sodipodi:nodetypes="czzcccczzc" />
  </g>
</svg>
